<svg width="19" height="12" viewBox="0 0 19 12" fill="none" xmlns="http://www.w3.org/2000/svg">
<path d="M5.435 11L3.125 6.92H2.135V11H0.0350001V0.53H3.965C4.775 0.53 5.465 0.675 6.035 0.965C6.605 1.245 7.03 1.63 7.31 2.12C7.6 2.6 7.745 3.14 7.745 3.74C7.745 4.43 7.545 5.055 7.145 5.615C6.745 6.165 6.15 6.545 5.36 6.755L7.865 11H5.435ZM2.135 5.345H3.89C4.46 5.345 4.885 5.21 5.165 4.94C5.445 4.66 5.585 4.275 5.585 3.785C5.585 3.305 5.445 2.935 5.165 2.675C4.885 2.405 4.46 2.27 3.89 2.27H2.135V5.345ZM11.7144 0.53V7.01C11.7144 7.72 11.8994 8.265 12.2694 8.645C12.6394 9.015 13.1594 9.2 13.8294 9.2C14.5094 9.2 15.0344 9.015 15.4044 8.645C15.7744 8.265 15.9594 7.72 15.9594 7.01V0.53H18.0744V6.995C18.0744 7.885 17.8794 8.64 17.4894 9.26C17.1094 9.87 16.5944 10.33 15.9444 10.64C15.3044 10.95 14.5894 11.105 13.7994 11.105C13.0194 11.105 12.3094 10.95 11.6694 10.64C11.0394 10.33 10.5394 9.87 10.1694 9.26C9.79938 8.64 9.61438 7.885 9.61438 6.995V0.53H11.7144Z" fill="#B7B7B7"/>
</svg>
